<svg width="44" height="44" viewBox="0 0 44 44" fill="none" xmlns="http://www.w3.org/2000/svg">
<g clip-path="url(#clip0_19_37)">
<path d="M43.9922 21.9961C43.9922 9.84799 34.1442 0 21.9961 0C9.84799 0 0 9.84799 0 21.9961V22.0039C0 34.152 9.84799 44 21.9961 44C34.1442 44 43.9922 34.152 43.9922 22.0039V21.9961Z" fill="#B6FBFF"/>
<mask id="mask0_19_37" style="mask-type:luminance" maskUnits="userSpaceOnUse" x="11" y="11" width="22" height="22">
<path d="M33 11H11V33H33V11Z" fill="white"/>
</mask>
<g mask="url(#mask0_19_37)">
<path d="M15.5834 22.9166H26.4551L23.1276 26.9133C23.0505 27.0059 22.9925 27.1129 22.9568 27.228C22.9211 27.3431 22.9084 27.4642 22.9195 27.5842C22.9418 27.8266 23.0595 28.0502 23.2467 28.2058C23.4339 28.3613 23.6753 28.4362 23.9177 28.4139C24.1601 28.3915 24.3837 28.2738 24.5392 28.0866L29.1226 22.5866C29.1534 22.5428 29.181 22.4969 29.2051 22.4491C29.2051 22.4033 29.2509 22.3758 29.2692 22.3299C29.3108 22.2248 29.3326 22.1129 29.3334 21.9999C29.3326 21.8869 29.3108 21.775 29.2692 21.6699C29.2692 21.6241 29.2234 21.5966 29.2051 21.5508C29.181 21.503 29.1534 21.457 29.1226 21.4133L24.5392 15.9133C24.4531 15.8098 24.3451 15.7266 24.2231 15.6695C24.1011 15.6125 23.9681 15.583 23.8334 15.5833C23.6192 15.5828 23.4117 15.6574 23.2467 15.7941C23.1539 15.871 23.0772 15.9655 23.021 16.0722C22.9647 16.1789 22.9301 16.2956 22.919 16.4156C22.9079 16.5357 22.9207 16.6567 22.9565 16.7719C22.9922 16.887 23.0504 16.994 23.1276 17.0866L26.4551 21.0833H15.5834C15.3403 21.0833 15.1071 21.1798 14.9352 21.3517C14.7633 21.5236 14.6667 21.7568 14.6667 21.9999C14.6667 22.243 14.7633 22.4762 14.9352 22.6481C15.1071 22.82 15.3403 22.9166 15.5834 22.9166Z" fill="black"/>
</g>
</g>
<defs>
<clipPath id="clip0_19_37">
<rect width="44" height="44" fill="white"/>
</clipPath>
</defs>
</svg>
